<svg width="1280" height="720" xmlns="http://www.w3.org/2000/svg" xmlns:xlink="http://www.w3.org/1999/xlink" overflow="hidden"><defs><filter id="fx0" x="-10%" y="-10%" width="120%" height="120%" filterUnits="userSpaceOnUse" primitiveUnits="userSpaceOnUse"><feComponentTransfer color-interpolation-filters="sRGB"><feFuncR type="discrete" tableValues="0 0"/><feFuncG type="discrete" tableValues="0 0"/><feFuncB type="discrete" tableValues="0 0"/><feFuncA type="linear" slope="0.14902" intercept="0"/></feComponentTransfer><feGaussianBlur stdDeviation="5.33333 5.33333"/></filter><filter id="fx1" x="-10%" y="-10%" width="120%" height="120%" filterUnits="userSpaceOnUse" primitiveUnits="userSpaceOnUse"><feComponentTransfer color-interpolation-filters="sRGB"><feFuncR type="discrete" tableValues="0 0"/><feFuncG type="discrete" tableValues="0 0"/><feFuncB type="discrete" tableValues="0 0"/><feFuncA type="linear" slope="0.14902" intercept="0"/></feComponentTransfer><feGaussianBlur stdDeviation="5.33333 5.33333"/></filter><clipPath id="clip2"><path d="M400.5 196C325.113 196 264 257.113 264 332.5 264 407.887 325.113 469 400.5 469 475.887 469 537 407.887 537 332.5 537 257.113 475.887 196 400.5 196ZM1.90735e-05 1.07288e-05 1280 1.07288e-05 1280 720 1.90735e-05 720Z" fill-rule="evenodd" clip-rule="evenodd"/></clipPath><clipPath id="clip3"><path d="M896 196.5C820.613 196.5 759.5 257.613 759.5 333 759.5 408.387 820.613 469.5 896 469.5 971.387 469.5 1032.5 408.387 1032.5 333 1032.5 257.613 971.387 196.5 896 196.5ZM1.90735e-05 1.07288e-05 1280 1.07288e-05 1280 720 1.90735e-05 720Z" fill-rule="evenodd" clip-rule="evenodd"/></clipPath></defs><g><rect x="0" y="0" width="1280" height="720" fill="#FFFFFF"/><text font-family="Arial,Arial_MSFontService,sans-serif" font-weight="400" font-size="53.3333" transform="translate(114.833 86)">No More “</text><text font-family="Arial,Arial_MSFontService,sans-serif" font-weight="700" font-size="53.3333" transform="translate(352.167 86)">Fatty”</text><text font-family="Arial,Arial_MSFontService,sans-serif" font-weight="400" font-size="53.3333" transform="translate(521.167 86)">Functions</text><text font-family="Arial,Arial_MSFontService,sans-serif" font-weight="400" font-size="53.3333" transform="translate(767.167 86)">Only “</text><text font-family="Brush Script MT,Brush Script MT_MSFontService,sans-serif" font-style="italic" font-weight="400" font-size="53.3333" transform="translate(909.5 86)">Slim”</text><text font-family="Arial,Arial_MSFontService,sans-serif" font-weight="400" font-size="53.3333" transform="translate(1037.67 86)">Ones</text><g clip-path="url(#clip2)"><g filter="url(#fx0)" transform="translate(243 505)"><g><path d="M0 25.935C-3.30187e-15 11.6115 11.6115-3.30187e-15 25.935-6.60374e-15 40.2585-1.32075e-14 51.87 11.6115 51.87 25.935 51.87 40.2585 40.2585 51.87 25.935 51.87 11.6115 51.87-1.65094e-14 40.2585 0 25.935Z" stroke="#E97132" stroke-width="7.6" stroke-miterlimit="8" fill="#FFFFFF" fill-rule="evenodd" transform="matrix(4.73684 0 0 -1 34.65 73.0034)"/></g></g></g><path d="M264 332.5C264 257.113 325.113 196 400.5 196 475.887 196 537 257.113 537 332.5 537 407.887 475.887 469 400.5 469 325.113 469 264 407.887 264 332.5Z" stroke="#E97132" stroke-width="40" stroke-miterlimit="8" fill="#FFFFFF" fill-rule="evenodd"/><path d="M318.781 178.515 345.432 178.515C361.408 178.515 374.882 180.082 385.856 183.218 396.83 186.353 406.013 191.952 413.403 200.015 420.794 208.077 427.102 219.35 432.328 233.832L441.062 258.916 513.625 479.963 453.604 479.963 406.796 321.4 349.015 479.963 287.203 479.963 377.01 258.916 372.755 246.822C370.217 239.805 366.036 234.728 360.213 231.593 354.39 228.457 347.223 226.89 338.713 226.89L318.781 226.89Z" stroke="#FFFFFF" stroke-linejoin="round" stroke-miterlimit="10" fill="#E97132" fill-rule="evenodd"/><text fill="#000000" fill-opacity="0" font-family="Arial,Arial_MSFontService,sans-serif" font-size="301.448" x="287.203" y="442.282">λ</text><g clip-path="url(#clip3)"><g filter="url(#fx1)" transform="translate(753 489)"><g><path d="M0 25.935C-3.30187e-15 11.6115 11.6115-3.30187e-15 25.935-6.60374e-15 40.2585-1.32075e-14 51.87 11.6115 51.87 25.935 51.87 40.2585 40.2585 51.87 25.935 51.87 11.6115 51.87-1.65094e-14 40.2585 0 25.935Z" stroke="#E97132" stroke-width="1.26667" stroke-miterlimit="8" fill="#FFFFFF" fill-rule="evenodd" transform="matrix(4.73684 0 0 -1 20.15 69.67)"/></g></g></g><path d="M759.5 333C759.5 257.613 820.613 196.5 896 196.5 971.387 196.5 1032.5 257.613 1032.5 333 1032.5 408.387 971.387 469.5 896 469.5 820.613 469.5 759.5 408.387 759.5 333Z" stroke="#E97132" stroke-width="6.66667" stroke-miterlimit="8" fill="#FFFFFF" fill-rule="evenodd"/><path d="M852.842 243.579 865.797 243.579C872.966 243.579 879.034 244.529 884 246.429 888.966 248.329 893.199 251.503 896.697 255.951 900.195 260.399 903.326 266.467 906.09 274.154L911.79 290.09 955.581 417.963 933.556 417.963 899.741 313.28 858.542 417.963 835.61 417.963 889.377 290.09 885.231 278.559C883.072 272.513 880.178 268.173 876.551 265.539 872.923 262.904 868.604 261.587 863.595 261.587L852.842 261.587Z" stroke="#FFFFFF" stroke-linejoin="round" stroke-miterlimit="10" fill="#E97132" fill-rule="evenodd"/><text fill="#000000" fill-opacity="0" font-family="Arial,Arial_MSFontService,sans-serif" font-size="174.384" x="835.61" y="396.165">λ</text><text fill="#3A3A3A" font-family="Arial Nova,Arial Nova_MSFontService,sans-serif" font-weight="400" font-size="53.3333" transform="translate(71.6903 651)">Lower cold</text><text fill="#3A3A3A" font-family="Arial Nova,Arial Nova_MSFontService,sans-serif" font-weight="400" font-size="53.3333" transform="translate(330.477 651)">-</text><text fill="#3A3A3A" font-family="Arial Nova,Arial Nova_MSFontService,sans-serif" font-weight="400" font-size="53.3333" transform="translate(349.87 651)">start</text><text fill="#3A3A3A" font-family="Arial Nova,Arial Nova_MSFontService,sans-serif" font-weight="400" font-size="53.3333" transform="translate(499.024 651)">Lower</text><text fill="#3A3A3A" font-family="Arial Nova,Arial Nova_MSFontService,sans-serif" font-weight="400" font-size="53.3333" transform="translate(657.644 651)">image size</text><text fill="#3A3A3A" font-family="Arial Nova,Arial Nova_MSFontService,sans-serif" font-weight="400" font-size="53.3333" transform="translate(950.397 651)">Lower cos</text><text fill="#3A3A3A" font-family="Arial Nova,Arial Nova_MSFontService,sans-serif" font-weight="400" font-size="53.3333" transform="translate(1192.02 651)">t</text><path d="M497.495 339.523 783.951 339.523 749.868 373.593C745.424 378.032 745.424 385.231 749.868 389.67 754.312 394.11 761.517 394.11 765.961 389.67L819.552 336.078C823.996 331.849 824.167 324.822 819.935 320.382 819.81 320.252 819.682 320.124 819.552 320L765.954 266.445C761.721 262.005 754.687 261.834 750.243 266.062 750.113 266.187 749.985 266.315 749.86 266.445 745.416 270.673 745.245 277.7 749.477 282.14 749.602 282.271 749.73 282.398 749.86 282.523L783.943 316.574 497.495 316.574C491.147 316.574 486 321.715 486 328.058 486 334.4 491.147 339.542 497.495 339.542Z" stroke="#3A3A3A" stroke-width="2.33333" stroke-miterlimit="8" fill="#747474" fill-rule="evenodd"/><path d="M62 574.5C62 551.028 81.0279 532 104.5 532 127.972 532 147 551.028 147 574.5 147 597.972 127.972 617 104.5 617 81.0279 617 62 597.972 62 574.5Z" stroke="#AEAEAE" stroke-width="2" stroke-miterlimit="8" fill="none" fill-rule="evenodd"/><text fill="#4EA72E" font-family="Aptos,Aptos_MSFontService,sans-serif" font-weight="700" font-size="96" transform="translate(68.596 606)">✓</text><path d="M486 574.5C486 551.028 505.028 532 528.5 532 551.972 532 571 551.028 571 574.5 571 597.972 551.972 617 528.5 617 505.028 617 486 597.972 486 574.5Z" stroke="#AEAEAE" stroke-width="2" stroke-miterlimit="8" fill="none" fill-rule="evenodd"/><text fill="#4EA72E" font-family="Aptos,Aptos_MSFontService,sans-serif" font-weight="700" font-size="96" transform="translate(492.693 606)">✓</text><path d="M933 574.5C933 551.028 952.028 532 975.5 532 998.972 532 1018 551.028 1018 574.5 1018 597.972 998.972 617 975.5 617 952.028 617 933 597.972 933 574.5Z" stroke="#AEAEAE" stroke-width="2" stroke-miterlimit="8" fill="none" fill-rule="evenodd"/><text fill="#4EA72E" font-family="Aptos,Aptos_MSFontService,sans-serif" font-weight="700" font-size="96" transform="translate(939.272 606)">✓</text></g></svg>